<mxfile host="app.diagrams.net" modified="2023-12-14T17:28:38.701Z" agent="Mozilla/5.0 (X11; Linux x86_64; rv:109.0) Gecko/20100101 Firefox/114.0" etag="MFZk5FXH1nHQRMaMRA3e" version="22.1.9" type="device">
  <diagram name="Página-1" id="5gsB9WSt0ofyKPX9FMrb">
    <mxGraphModel dx="1434" dy="746" grid="1" gridSize="10" guides="1" tooltips="1" connect="1" arrows="1" fold="1" page="1" pageScale="1" pageWidth="1169" pageHeight="827" background="#c8e5f3" math="0" shadow="0">
      <root>
        <mxCell id="0" />
        <mxCell id="1" parent="0" />
        <mxCell id="3a4_AmlxJf8o-_ZSuRU7-18" style="edgeStyle=orthogonalEdgeStyle;rounded=0;orthogonalLoop=1;jettySize=auto;html=1;exitX=1;exitY=0.5;exitDx=0;exitDy=0;entryX=0;entryY=0.5;entryDx=0;entryDy=0;" parent="1" target="3a4_AmlxJf8o-_ZSuRU7-6" edge="1">
          <mxGeometry relative="1" as="geometry">
            <mxPoint x="160" y="300" as="sourcePoint" />
          </mxGeometry>
        </mxCell>
        <mxCell id="3a4_AmlxJf8o-_ZSuRU7-2" value="&lt;b&gt;&lt;font style=&quot;font-size: 25px;&quot;&gt;Diagrama 4: Proveedores&lt;br&gt;&lt;/font&gt;&lt;/b&gt;" style="rounded=1;whiteSpace=wrap;html=1;" parent="1" vertex="1">
          <mxGeometry x="240" y="40" width="350" height="40" as="geometry" />
        </mxCell>
        <mxCell id="3a4_AmlxJf8o-_ZSuRU7-21" style="rounded=0;orthogonalLoop=1;jettySize=auto;html=1;exitX=1;exitY=1;exitDx=0;exitDy=0;entryX=0;entryY=0;entryDx=0;entryDy=0;" parent="1" source="3a4_AmlxJf8o-_ZSuRU7-6" target="3a4_AmlxJf8o-_ZSuRU7-20" edge="1">
          <mxGeometry relative="1" as="geometry" />
        </mxCell>
        <mxCell id="3a4_AmlxJf8o-_ZSuRU7-22" style="rounded=0;orthogonalLoop=1;jettySize=auto;html=1;exitX=1;exitY=0;exitDx=0;exitDy=0;entryX=0;entryY=1;entryDx=0;entryDy=0;" parent="1" source="3a4_AmlxJf8o-_ZSuRU7-6" target="3a4_AmlxJf8o-_ZSuRU7-19" edge="1">
          <mxGeometry relative="1" as="geometry" />
        </mxCell>
        <mxCell id="3a4_AmlxJf8o-_ZSuRU7-24" style="edgeStyle=orthogonalEdgeStyle;rounded=0;orthogonalLoop=1;jettySize=auto;html=1;exitX=0.5;exitY=1;exitDx=0;exitDy=0;" parent="1" source="3a4_AmlxJf8o-_ZSuRU7-6" target="3a4_AmlxJf8o-_ZSuRU7-23" edge="1">
          <mxGeometry relative="1" as="geometry" />
        </mxCell>
        <mxCell id="3a4_AmlxJf8o-_ZSuRU7-6" value="Pedidos de peliculas" style="ellipse;whiteSpace=wrap;html=1;aspect=fixed;" parent="1" vertex="1">
          <mxGeometry x="270" y="240" width="120" height="120" as="geometry" />
        </mxCell>
        <mxCell id="3a4_AmlxJf8o-_ZSuRU7-19" value="Nuevas" style="ellipse;whiteSpace=wrap;html=1;aspect=fixed;" parent="1" vertex="1">
          <mxGeometry x="440" y="160" width="80" height="80" as="geometry" />
        </mxCell>
        <mxCell id="3a4_AmlxJf8o-_ZSuRU7-20" value="Existentes" style="ellipse;whiteSpace=wrap;html=1;aspect=fixed;" parent="1" vertex="1">
          <mxGeometry x="440" y="360" width="80" height="80" as="geometry" />
        </mxCell>
        <mxCell id="3a4_AmlxJf8o-_ZSuRU7-23" value="Factura" style="rounded=1;whiteSpace=wrap;html=1;" parent="1" vertex="1">
          <mxGeometry x="290" y="440" width="80" height="40" as="geometry" />
        </mxCell>
        <mxCell id="3a4_AmlxJf8o-_ZSuRU7-25" value="&lt;font style=&quot;font-size: 10px;&quot;&gt;Emitir&lt;/font&gt;" style="text;html=1;align=center;verticalAlign=middle;resizable=0;points=[];autosize=1;strokeColor=none;fillColor=none;" parent="1" vertex="1">
          <mxGeometry x="285" y="378" width="50" height="30" as="geometry" />
        </mxCell>
        <mxCell id="3a4_AmlxJf8o-_ZSuRU7-26" value="Pedir" style="text;html=1;align=center;verticalAlign=middle;resizable=0;points=[];autosize=1;strokeColor=none;fillColor=none;" parent="1" vertex="1">
          <mxGeometry x="185" y="268" width="50" height="30" as="geometry" />
        </mxCell>
        <mxCell id="HpP-E_wjw0MOkHpNnoEZ-2" value="&lt;div&gt;Gestión alquiler&lt;/div&gt;" style="rounded=0;whiteSpace=wrap;html=1;" vertex="1" parent="1">
          <mxGeometry x="40" y="270" width="120" height="60" as="geometry" />
        </mxCell>
      </root>
    </mxGraphModel>
  </diagram>
</mxfile>
